<?xml version="1.0" encoding="UTF-8"?>
<svg id="Design" xmlns="http://www.w3.org/2000/svg" viewBox="0 0 595.28 95.31">
  <defs>
    <style>
      .cls-1 {
        fill: #1592c3;
      }
    </style>
  </defs>
  <path d="M121.77,64.87l3.04-.23s.23,0,.23-.23v-27.4l-3.28-.23v-4.92c2.81,0,8.66-.23,11.94-.23,5.62,0,9.84,0,13.11,1.41,2.58,1.17,4.92,4.22,4.92,7.26,0,3.98-3.04,7.03-6.79,8.43v.47c4.92.7,8.9,4.45,8.9,9.37,0,6.09-6.09,10.77-15.92,10.77h-16.39c.23-1.41.23-3.04.23-4.45ZM134.65,63.46c0,1.17,1.17,1.64,2.58,1.64,3.75,0,6.56-2.11,6.56-5.85,0-3.28-2.81-6.32-7.49-6.32h-1.41l-.23,10.54ZM134.89,48.01h1.41c3.75,0,6.32-2.34,6.32-5.85,0-3.04-2.34-5.85-5.62-5.85-.94,0-1.64,0-1.87.23l-.23,11.47Z"/>
  <path d="M158.77,36.77v-4.92h17.56v4.92l-3.75.23v.23l-.23,27.16,3.98.23v4.92h-17.33v-5.15h3.28s.23,0,.23-.23v-27.4h-3.75Z"/>
  <path d="M181.25,36.77v-4.92h16.86v4.92h-3.75s-.23,0-.23.23l.23,26.23q0,1.17,2.58,1.17c2.34,0,3.75-.23,4.68-.47.47,0,.7-.47.94-1.17l2.11-6.09c1.87.23,3.98.7,5.85,1.17-.7,3.75-1.41,7.73-2.34,11.47h-26.7v-4.92h3.04s.23,0,.23-.23v-27.4h-3.51Z"/>
  <path d="M213.33,66.74s.23,0,.23-.23c3.98-10.3,9.6-24.82,13.58-35.13h3.04c3.98,10.54,8.9,25.06,12.65,35.59l3.51.23v2.58h-13.11v-2.81l4.45-.23s.23,0,0-.23c-.94-2.58-2.11-5.85-3.04-8.43,0-.23-.23-.23-.47-.23h-13.82c-.94,2.81-2.11,6.32-3.04,8.9l5.15.23v2.58h-12.88v-2.81h3.75ZM227.85,37.7c-1.87,5.39-4.22,11.71-6.09,16.86v.23h12.18c-1.64-5.15-3.98-11.71-6.09-17.09h0Z"/>
  <path d="M248.7,66.97h3.98s.23,0,.23-.23v-32.08h-4.45v-2.58h10.3c4.92,0,8.43.23,11.01,1.64,2.58,1.17,4.68,3.98,4.68,7.03,0,4.22-3.04,7.49-7.03,8.9v.23c5.15.7,9.37,4.45,9.37,9.13,0,6.56-5.62,11.01-14.52,11.01h-13.82c.23-1.41.23-2.34.23-3.04ZM257.59,64.87c0,1.64,1.17,2.11,4.92,2.11,4.68,0,9.84-2.11,9.84-7.96,0-3.51-2.81-7.96-11.01-7.96h-3.51l-.23,13.82ZM257.59,48.47h2.81c5.15,0,9.6-2.81,9.6-7.26,0-3.98-2.81-7.03-9.13-7.03-1.87,0-2.81,0-3.28.23v14.05Z"/>
  <path d="M287.57,65.34c-3.28-3.28-5.15-8.2-5.15-14.28,0-7.49,3.75-13.58,8.2-16.63,3.51-2.34,7.03-3.28,11.01-3.28,3.51,0,6.79.94,9.84,2.81,4.22,3.04,7.26,8.66,7.26,15.46,0,6.09-1.87,11.94-6.09,15.92-3.04,3.04-6.79,4.68-12.65,4.68-5.39,0-9.6-1.87-12.41-4.68ZM309.11,63.7c2.34-2.58,4.22-6.56,4.22-12.88,0-5.39-1.41-10.07-4.22-13.11-2.11-2.58-4.92-3.51-8.43-3.51-3.28,0-6.09.94-8.2,3.04-2.81,2.34-5.15,7.03-5.15,13.58,0,5.85,1.17,9.84,4.22,13.11,2.34,2.58,5.39,3.51,8.9,3.51,3.51-.23,6.56-1.41,8.66-3.75Z"/>
  <path d="M327.38,66.74q.23,0,0,0l.23-32.08-4.22-.23v-2.58h8.43c6.56,9.84,14.52,21.54,20.84,31.38h.23c0-9.6,0-18.97-.23-28.57h-5.39v-2.81h12.88v2.58l-3.51.23s-.23,0-.23.23l-.23,34.42c-.7.23-2.11.7-3.04.7-6.09-8.43-14.05-19.9-21.54-31.38h-.23v28.1h5.85v2.81h-13.35v-2.81h3.51Z"/>
  <path d="M369.06,66.74q.23,0,0,0l.23-32.08-4.22-.23v-2.58h8.43c6.56,9.84,14.52,21.54,20.84,31.38h.23c0-9.6,0-18.97-.23-28.57h-5.39v-2.81h12.88v2.58l-3.51.23s-.23,0-.23.23l-.23,34.42c-.7.23-2.11.7-3.04.7-6.09-8.43-14.05-19.9-21.54-31.38h-.23v28.1h5.85v2.81h-13.35v-2.81h3.51Z"/>
  <path d="M411.21,66.74s.23,0,0,0l.23-32.08-4.22-.23v-2.58h24.82c.23,2.81.47,5.85.47,8.9-.94,0-1.87.23-3.04.23l-.94-5.15c0-.47-.47-.94-1.41-.94-1.41-.23-5.39-.23-9.13-.23h-1.64v14.28h9.13c.94,0,1.17-.47,1.41-1.17l.23-2.81h3.04v11.01h-3.04l-.23-3.04c0-.7-.47-1.17-1.41-1.17h-9.13v14.05c0,.94.23,1.17,3.28,1.17,4.68,0,7.96-.23,9.13-.47.47,0,.7-.47.94-1.17l1.87-5.39c.94.23,2.11.47,3.04.47-.7,3.04-1.41,6.09-2.11,9.13h-24.82v-2.81h3.51Z"/>
  <path d="M439.78,34.42v-2.81h10.3c3.51,8.66,7.73,19.67,12.18,30.44h.23c3.98-10.07,8.43-21.31,12.18-30.44h9.84v2.81h-3.75s-.23,0-.23.23v31.85l3.98.23v2.58h-13.11v-2.81l4.45-.23q.23,0,.23-.23c0-8.9,0-19.9-.23-29.27h-.23c-5.15,13.58-9.37,22.95-12.65,30.44h-2.58c-3.75-8.43-8.2-18.73-12.65-30.91h-.47c0,9.37-.23,20.37-.23,29.74l5.15.23v2.58h-12.65v-2.81l3.75-.23s.23,0,.23-.23c0-9.84.23-22.25.23-31.85l-3.98.7Z"/>
  <path d="M494.58,66.74h0l.23-32.08-4.22-.23v-2.58h24.82c.23,2.81.47,5.85.47,8.9-.94,0-1.87.23-3.04.23l-.94-5.15c0-.47-.47-.94-1.41-.94-1.41-.23-5.39-.23-9.13-.23h-1.64v14.28h9.13c.94,0,1.17-.47,1.41-1.17l.23-2.81h3.04v11.01h-3.04l-.23-3.04c0-.7-.47-1.17-1.41-1.17h-9.13v14.05c0,.94.23,1.17,3.28,1.17,4.68,0,7.96-.23,9.13-.47.47,0,.7-.47.94-1.17l1.87-5.39c.94.23,2.11.47,3.04.47-.7,3.04-1.41,6.09-2.11,9.13h-24.82v-2.81h3.51Z"/>
  <path d="M526.66,66.74q.23,0,0,0l.23-32.08-4.22-.23v-2.58h8.43c6.56,9.84,14.52,21.54,20.84,31.38h.23c0-9.6,0-18.97-.23-28.57h-5.39v-2.81h12.88v2.58l-3.51.23s-.23,0-.23.23l-.23,34.42c-.7.23-2.11.7-3.04.7-6.09-8.43-14.05-19.9-21.54-31.38h-.23v28.1h5.85v2.81h-13.35v-2.81h3.51Z"/>
  <path d="M577.01,66.74c.23,0,.23-.23,0,0l.23-32.08c-4.92,0-6.32,0-7.49.23-1.17,0-1.41.47-1.41,1.17l-.94,5.62c-.94,0-2.11-.23-3.28-.23.23-3.28.23-6.56.47-9.6h30.21c.23,3.04.23,6.32.47,9.6-.94,0-2.11.23-3.28.23l-.94-5.62c0-.7-.23-.94-1.41-.94-1.64-.23-2.58-.23-7.73-.23l-.23,32.08,5.39.23v2.81h-14.75v-2.81l4.68-.47Z"/>
  <g>
    <path class="cls-1" d="M46.84,32.78v19.9c0,2.34-1.87,4.45-4.45,4.45-2.34,0-4.45-1.87-4.45-4.45v-19.9c0-2.34,1.87-4.45,4.45-4.45,2.58.23,4.45,2.11,4.45,4.45"/>
    <path d="M76.58,52.69c0-9.37-3.75-17.8-9.84-23.89-6.32-6.09-14.75-10.07-24.12-10.07s-17.8,3.75-23.89,9.84c-6.09,6.09-9.84,14.52-9.84,23.89s3.75,17.8,9.84,23.89c6.09,6.09,14.52,9.84,23.89,9.84s17.8-3.75,23.89-9.84c6.32-5.62,10.07-14.28,10.07-23.65M89.22,15.46c1.64,1.64,1.64,4.45,0,6.09-1.64,1.64-4.45,1.64-6.09,0l-1.64-1.64-6.09,5.85c6.09,7.26,9.6,16.63,9.6,26.93,0,23.42-18.97,42.62-42.62,42.62S0,76.34,0,52.69C0,30.68,16.86,12.65,38.17,10.3v-5.85c0-2.34,1.87-4.45,4.45-4.45,2.34,0,4.45,1.87,4.45,4.45v6.09c8.43.94,16.16,4.22,22.48,9.37l6.09-5.85-1.64-1.64c-1.64-1.64-1.64-4.45,0-6.09,1.64-1.64,4.45-1.64,6.09,0l4.68,4.68,4.45,4.45Z"/>
  </g>
</svg>